<svg width="90" height="28" viewBox="0 0 90 28" fill="none" xmlns="http://www.w3.org/2000/svg">
<path d="M32.6289 18.6602L36.8828 4.9375H40.457L34.4336 22H32.0547L32.6289 18.6602ZM28.7031 4.9375L32.9336 18.6602L33.543 22H31.1406L25.1406 4.9375H28.7031ZM40.8906 15.7891V15.543C40.8906 14.6133 41.0234 13.7578 41.2891 12.9766C41.5547 12.1875 41.9414 11.5039 42.4492 10.9258C42.957 10.3477 43.5781 9.89844 44.3125 9.57812C45.0469 9.25 45.8828 9.08594 46.8203 9.08594C47.7734 9.08594 48.6172 9.25 49.3516 9.57812C50.0938 9.89844 50.7188 10.3477 51.2266 10.9258C51.7344 11.5039 52.1211 12.1875 52.3867 12.9766C52.6523 13.7578 52.7852 14.6133 52.7852 15.543V15.7891C52.7852 16.7109 52.6523 17.5664 52.3867 18.3555C52.1211 19.1367 51.7344 19.8203 51.2266 20.4062C50.7188 20.9844 50.0977 21.4336 49.3633 21.7539C48.6289 22.0742 47.7891 22.2344 46.8438 22.2344C45.9062 22.2344 45.0664 22.0742 44.3242 21.7539C43.582 21.4336 42.957 20.9844 42.4492 20.4062C41.9414 19.8203 41.5547 19.1367 41.2891 18.3555C41.0234 17.5664 40.8906 16.7109 40.8906 15.7891ZM43.9844 15.543V15.7891C43.9844 16.3438 44.0391 16.8633 44.1484 17.3477C44.2578 17.832 44.4258 18.2578 44.6523 18.625C44.8789 18.9922 45.1719 19.2812 45.5312 19.4922C45.8984 19.6953 46.3359 19.7969 46.8438 19.7969C47.3438 19.7969 47.7734 19.6953 48.1328 19.4922C48.4922 19.2812 48.7852 18.9922 49.0117 18.625C49.2461 18.2578 49.418 17.832 49.5273 17.3477C49.6367 16.8633 49.6914 16.3438 49.6914 15.7891V15.543C49.6914 14.9961 49.6367 14.4844 49.5273 14.0078C49.418 13.5234 49.2461 13.0977 49.0117 12.7305C48.7852 12.3555 48.4883 12.0625 48.1211 11.8516C47.7617 11.6328 47.3281 11.5234 46.8203 11.5234C46.3203 11.5234 45.8906 11.6328 45.5312 11.8516C45.1719 12.0625 44.8789 12.3555 44.6523 12.7305C44.4258 13.0977 44.2578 13.5234 44.1484 14.0078C44.0391 14.4844 43.9844 14.9961 43.9844 15.543ZM58.3164 4V22H55.2109V4H58.3164ZM67.2695 9.32031V11.5469H60.0039V9.32031H67.2695ZM61.9492 6.20312H65.0547V18.3438C65.0547 18.7188 65.1055 19.0078 65.207 19.2109C65.3086 19.4141 65.4609 19.5508 65.6641 19.6211C65.8672 19.6914 66.1094 19.7266 66.3906 19.7266C66.5938 19.7266 66.7812 19.7148 66.9531 19.6914C67.125 19.668 67.2695 19.6445 67.3867 19.6211L67.3984 21.9414C67.1406 22.0273 66.8477 22.0977 66.5195 22.1523C66.1992 22.207 65.8359 22.2344 65.4297 22.2344C64.7344 22.2344 64.125 22.1172 63.6016 21.8828C63.0781 21.6406 62.6719 21.2539 62.3828 20.7227C62.0938 20.1836 61.9492 19.4727 61.9492 18.5898V6.20312ZM76.3164 19.3047V13.457C76.3164 13.0273 76.2422 12.6562 76.0938 12.3438C75.9453 12.0312 75.7188 11.7891 75.4141 11.6172C75.1094 11.4453 74.7227 11.3594 74.2539 11.3594C73.8398 11.3594 73.4766 11.4297 73.1641 11.5703C72.8594 11.7109 72.625 11.9102 72.4609 12.168C72.2969 12.418 72.2148 12.707 72.2148 13.0352H69.1094C69.1094 12.5117 69.2344 12.0156 69.4844 11.5469C69.7344 11.0703 70.0898 10.6484 70.5508 10.2812C71.0195 9.90625 71.5781 9.61328 72.2266 9.40234C72.8828 9.19141 73.6172 9.08594 74.4297 9.08594C75.3906 9.08594 76.2461 9.25 76.9961 9.57812C77.7539 9.89844 78.3477 10.3828 78.7773 11.0312C79.2148 11.6797 79.4336 12.4961 79.4336 13.4805V19.0117C79.4336 19.6445 79.4727 20.1875 79.5508 20.6406C79.6367 21.0859 79.7617 21.4727 79.9258 21.8008V22H76.7734C76.625 21.6797 76.5117 21.2734 76.4336 20.7812C76.3555 20.2812 76.3164 19.7891 76.3164 19.3047ZM76.75 14.2773L76.7734 16.1172H74.8164C74.332 16.1172 73.9062 16.168 73.5391 16.2695C73.1719 16.3633 72.8711 16.5039 72.6367 16.6914C72.4023 16.8711 72.2266 17.0898 72.1094 17.3477C71.9922 17.5977 71.9336 17.8828 71.9336 18.2031C71.9336 18.5156 72.0039 18.7969 72.1445 19.0469C72.293 19.2969 72.5039 19.4961 72.7773 19.6445C73.0586 19.7852 73.3867 19.8555 73.7617 19.8555C74.3086 19.8555 74.7852 19.7461 75.1914 19.5273C75.5977 19.3008 75.9141 19.0273 76.1406 18.707C76.3672 18.3867 76.4883 18.082 76.5039 17.793L77.3945 19.1289C77.2852 19.4492 77.1211 19.7891 76.9023 20.1484C76.6836 20.5078 76.4023 20.8438 76.0586 21.1562C75.7148 21.4688 75.3008 21.7266 74.8164 21.9297C74.332 22.1328 73.7695 22.2344 73.1289 22.2344C72.3086 22.2344 71.5742 22.0703 70.9258 21.7422C70.2773 21.4141 69.7656 20.9648 69.3906 20.3945C69.0156 19.8242 68.8281 19.1758 68.8281 18.4492C68.8281 17.7773 68.9531 17.1836 69.2031 16.668C69.4531 16.1523 69.8242 15.7188 70.3164 15.3672C70.8086 15.0078 71.418 14.7383 72.1445 14.5586C72.8789 14.3711 73.7188 14.2773 74.6641 14.2773H76.75ZM85.3164 11.9102V22H82.2227V9.32031H85.1523L85.3164 11.9102ZM89.1719 9.23828L89.125 12.1211C88.9531 12.0898 88.7578 12.0664 88.5391 12.0508C88.3281 12.0352 88.1289 12.0273 87.9414 12.0273C87.4648 12.0273 87.0469 12.0938 86.6875 12.2266C86.3281 12.3516 86.0273 12.5352 85.7852 12.7773C85.5508 13.0195 85.3711 13.3164 85.2461 13.668C85.1211 14.0117 85.0508 14.4023 85.0352 14.8398L84.3672 14.7578C84.3672 13.9531 84.4492 13.207 84.6133 12.5195C84.7773 11.832 85.0156 11.2305 85.3281 10.7148C85.6406 10.1992 86.0312 9.80078 86.5 9.51953C86.9766 9.23047 87.5234 9.08594 88.1406 9.08594C88.3125 9.08594 88.4961 9.10156 88.6914 9.13281C88.8945 9.15625 89.0547 9.19141 89.1719 9.23828Z" fill="#FF0000"/>
<path d="M10.837 23.0636L1.6062 13.8329L10.837 4.60211" stroke="#FF0000" stroke-width="2.5" stroke-linecap="round" stroke-linejoin="round"/>
<path d="M2.88843 13.8329H21.6064" stroke="#FF0000" stroke-width="2.5" stroke-linecap="round" stroke-linejoin="round"/>
</svg>
