<svg width="27" height="27" viewBox="0 0 27 27" fill="none" xmlns="http://www.w3.org/2000/svg">
<path d="M13.5 26C20.4035 26 26 20.4035 26 13.5C26 6.59644 20.4035 1 13.5 1C6.59644 1 1 6.59644 1 13.5C1 20.4035 6.59644 26 13.5 26Z" stroke="#FE4747" stroke-width="2" stroke-linecap="round" stroke-linejoin="round"/>
<path d="M13.5 26C20.4035 26 26 20.4035 26 13.5C26 6.59644 20.4035 1 13.5 1C6.59644 1 1 6.59644 1 13.5C1 20.4035 6.59644 26 13.5 26Z" stroke="#FE4747" stroke-width="2" stroke-linecap="round" stroke-linejoin="round"/>
<path d="M13.5 26C20.4035 26 26 20.4035 26 13.5C26 6.59644 20.4035 1 13.5 1C6.59644 1 1 6.59644 1 13.5C1 20.4035 6.59644 26 13.5 26Z" stroke="#FE4747" stroke-width="2" stroke-linecap="round" stroke-linejoin="round"/>
<path d="M13.5 26C20.4035 26 26 20.4035 26 13.5C26 6.59644 20.4035 1 13.5 1C6.59644 1 1 6.59644 1 13.5C1 20.4035 6.59644 26 13.5 26Z" stroke="#FE4747" stroke-width="2" stroke-linecap="round" stroke-linejoin="round"/>
<path d="M17.25 18.5L9.75 8.5" stroke="#FE4747" stroke-width="2" stroke-linecap="round" stroke-linejoin="round"/>
<path d="M17.25 18.5L9.75 8.5" stroke="#FE4747" stroke-width="2" stroke-linecap="round" stroke-linejoin="round"/>
<path d="M17.25 18.5L9.75 8.5" stroke="#FE4747" stroke-width="2" stroke-linecap="round" stroke-linejoin="round"/>
<path d="M17.25 18.5L9.75 8.5" stroke="#FE4747" stroke-width="2" stroke-linecap="round" stroke-linejoin="round"/>
<path d="M9.75 18.5L17.25 8.5" stroke="#FE4747" stroke-width="2" stroke-linecap="round" stroke-linejoin="round"/>
<path d="M9.75 18.5L17.25 8.5" stroke="#FE4747" stroke-width="2" stroke-linecap="round" stroke-linejoin="round"/>
<path d="M9.75 18.5L17.25 8.5" stroke="#FE4747" stroke-width="2" stroke-linecap="round" stroke-linejoin="round"/>
<path d="M9.75 18.5L17.25 8.5" stroke="#FE4747" stroke-width="2" stroke-linecap="round" stroke-linejoin="round"/>
</svg>
