<svg width="29" height="22" viewBox="0 0 29 22" fill="none" xmlns="http://www.w3.org/2000/svg">
    <path d="M18.2058 6.16945V3.7656C18.2058 3.12806 17.9525 2.51663 17.5017 2.06583C17.0509 1.61502 16.4395 1.36176 15.8019 1.36176H4.26347C3.62593 1.36176 3.0145 1.61502 2.56369 2.06583C2.11288 2.51663 1.85962 3.12806 1.85962 3.7656V18.1887C1.85962 18.8262 2.11288 19.4376 2.56369 19.8885C3.0145 20.3393 3.62593 20.5925 4.26347 20.5925H15.8019C16.4395 20.5925 17.0509 20.3393 17.5017 19.8885C17.9525 19.4376 18.2058 18.8262 18.2058 18.1887V15.7848" stroke="#FF0000" stroke-width="2.5" stroke-linecap="round" stroke-linejoin="round"/>
    <path d="M22.0518 6.16946L26.8594 10.9772L22.0518 15.7848" stroke="#FF0000" stroke-width="2.5" stroke-linecap="round" stroke-linejoin="round"/>
    <path d="M10.4534 10.9772H26.8596" stroke="#FF0000" stroke-width="2.5" stroke-linecap="round" stroke-linejoin="round"/>
</svg>
