<svg width="396" height="199" viewBox="0 0 396 199" fill="none" xmlns="http://www.w3.org/2000/svg">
<g clip-path="url(#clip0_203_89)">
<g clip-path="url(#clip1_203_89)">
<g clip-path="url(#clip2_203_89)">
<path d="M240.015 69.7259H233.524C232.416 69.6963 231.361 69.2467 230.578 68.4716C229.795 67.6956 229.343 66.6522 229.316 65.5562C229.288 64.4614 229.686 63.397 230.43 62.5838L235.039 58.0294C235.652 57.4308 235.997 56.6147 235.997 55.7622C235.997 54.9108 235.652 54.0946 235.039 53.4961L224.501 43.0826C223.896 42.4765 223.07 42.1357 222.208 42.1357C221.347 42.1357 220.521 42.4765 219.915 43.0826L215.284 47.616C214.674 48.1869 213.904 48.5629 213.074 48.6965C212.245 48.8303 211.394 48.7137 210.632 48.3644C209.869 48.0723 209.21 47.5626 208.74 46.9001C208.271 46.2375 208.01 45.4529 207.992 44.6434V38.2287C207.992 36.4579 206.54 35.0213 204.747 35.0213H189.904C188.111 35.0213 186.659 36.4579 186.659 38.2287V44.6434C186.622 45.7459 186.155 46.7921 185.357 47.5625C184.558 48.3328 183.488 48.769 182.373 48.7786C181.256 48.7891 180.179 48.3719 179.367 47.616L174.758 43.0616C173.468 41.8664 171.46 41.8664 170.171 43.0616L159.633 53.4322C159.02 54.0308 158.675 54.8469 158.675 55.6984C158.675 56.5498 159.02 57.367 159.633 57.9655L164.242 62.5837C164.805 63.1726 165.181 63.9124 165.323 64.7105C165.465 65.5085 165.368 66.3303 165.043 67.074C164.746 67.8481 164.22 68.5154 163.532 68.9889C162.845 69.4623 162.029 69.7191 161.192 69.7258H154.7C152.908 69.7258 151.455 71.1615 151.455 72.9331V87.6661C151.455 89.4377 152.908 90.8725 154.7 90.8725H161.192C162.31 90.9041 163.372 91.3613 164.156 92.1498C164.94 92.9383 165.385 93.996 165.397 95.1013C165.409 96.2067 164.988 97.2738 164.221 98.0783L159.633 102.634C159.02 103.231 158.675 104.048 158.675 104.901C158.675 105.752 159.02 106.568 159.633 107.167L170.171 117.579C170.776 118.186 171.602 118.527 172.464 118.527C173.327 118.527 174.152 118.186 174.758 117.579L179.367 113.025C179.986 112.469 180.755 112.103 181.581 111.969C182.406 111.837 183.253 111.944 184.019 112.277C184.788 112.574 185.448 113.09 185.919 113.761C186.389 114.431 186.646 115.225 186.659 116.04V122.455C186.659 124.227 188.111 125.662 189.904 125.662H204.813C206.605 125.662 208.057 124.227 208.057 122.455V116.04C208.098 114.949 208.56 113.915 209.346 113.149C210.133 112.384 211.186 111.945 212.29 111.922C213.394 111.898 214.465 112.293 215.284 113.025L219.893 117.58C220.498 118.186 221.324 118.527 222.187 118.527C223.049 118.527 223.874 118.186 224.48 117.58L235.018 107.167C236.283 105.914 236.283 103.885 235.018 102.633L230.43 98.0783C229.853 97.4757 229.472 96.7149 229.337 95.8946C229.202 95.0756 229.319 94.2346 229.673 93.4815C229.968 92.7273 230.484 92.0764 231.155 91.6114C231.825 91.1475 232.619 90.8898 233.438 90.8726H239.929C241.721 90.8726 243.175 89.4369 243.175 87.6652V72.9332C243.175 71.194 241.774 69.7716 240.015 69.7259ZM197.347 100.71C191.866 100.71 186.608 98.5577 182.733 94.7267C178.857 90.8959 176.681 85.7001 176.683 80.2831C176.685 74.8659 178.865 69.671 182.744 65.8431C186.622 62.0143 191.88 59.8655 197.361 59.8694C202.843 59.8732 208.099 62.0296 211.971 65.8632C215.844 69.6969 218.016 74.8944 218.01 80.3117C218.004 85.7233 215.825 90.9123 211.951 94.7372C208.076 98.5606 202.824 100.71 197.347 100.71Z" fill="#79E3BD"/>
<path d="M233.223 24.4584C228.208 24.4718 223.37 26.2884 219.612 29.5683C218.97 30.1353 218.582 30.9323 218.532 31.782C218.484 32.6324 218.779 33.4667 219.352 34.1016C220.547 35.4246 222.601 35.5391 223.94 34.3584C227.605 31.4965 232.461 30.604 236.923 31.971C241.385 33.3388 244.878 36.7907 246.262 41.1999C247.645 45.6091 246.742 50.4078 243.846 54.0304C242.662 55.3563 242.777 57.3781 244.106 58.5638C245.448 59.7341 247.494 59.6196 248.693 58.307C252.22 54.3589 254.066 49.2156 253.847 43.953C253.628 38.6915 251.36 33.716 247.517 30.0669C243.673 26.4184 238.552 24.3786 233.223 24.3727L233.223 24.4584Z" fill="#79E3BD"/>
<path d="M275.869 34.2944H269.378C268.562 34.281 267.766 34.0281 267.096 33.5679C266.426 33.1069 265.909 32.4587 265.613 31.7065V31.5137V31.5147C265.298 30.7777 265.209 29.9663 265.355 29.1798C265.501 28.3941 265.877 27.6668 266.436 27.0883L271.044 22.5339C272.309 21.2815 272.309 19.253 271.044 18.0006L260.398 7.58712C259.109 6.392 257.102 6.392 255.81 7.58712L251.202 12.1415C250.617 12.6933 249.881 13.0645 249.086 13.2088C248.29 13.3529 247.469 13.265 246.723 12.9548H246.528C245.749 12.655 245.083 12.1282 244.615 11.4447C244.148 10.7602 243.902 9.95263 243.91 9.12691V2.71215C243.91 0.940452 242.458 -0.495239 240.665 -0.495239H225.757C223.965 -0.495239 222.512 0.940452 222.512 2.71215V9.12691C222.498 9.93351 222.242 10.7192 221.776 11.3816C221.31 12.0441 220.654 12.5549 219.893 12.8478H219.677C218.953 13.1562 218.154 13.2536 217.377 13.1285C216.598 13.0035 215.872 12.6617 215.285 12.1415L210.611 7.5871C209.321 6.39198 207.314 6.39198 206.024 7.5871L195.487 18.0005C194.873 18.5991 194.528 19.4152 194.528 20.2667C194.528 21.1191 194.873 21.9353 195.487 22.5338L200.139 27.0882C201.417 28.2661 203.41 28.2308 204.646 27.0099C205.882 25.788 205.917 23.8187 204.726 22.555L202.302 20.2669L208.252 14.3868L210.568 16.6749C212.074 18.1259 213.982 19.1033 216.05 19.4842C218.118 19.8651 220.253 19.6312 222.187 18.8132H222.36C224.283 18.0227 225.926 16.6873 227.082 14.9748C228.237 13.2623 228.852 11.249 228.851 9.19099V5.91957H237.268L237.267 9.12696C237.273 11.1812 237.892 13.1877 239.047 14.8954C240.202 16.6031 241.841 17.9366 243.759 18.7281L243.996 18.835C245.93 19.6521 248.067 19.886 250.134 19.5052C252.202 19.1252 254.11 18.1477 255.617 16.6968L257.932 14.4087L263.882 20.2888L261.567 22.5769C260.096 24.0631 259.104 25.9485 258.719 27.9931C258.334 30.0369 258.572 32.1485 259.403 34.0585V34.2942C260.204 36.1891 261.552 37.8091 263.28 38.9508C265.009 40.0915 267.039 40.7034 269.117 40.7091H272.623V49.0273L269.378 49.0263C267.295 49.0253 265.257 49.6334 263.525 50.7761C261.792 51.9177 260.441 53.5404 259.64 55.4411V55.613C258.812 57.5241 258.577 59.6346 258.962 61.6773C259.347 63.7211 260.336 65.6063 261.805 67.0946L264.119 69.3827L258.104 75.4128L255.79 73.0607C255.212 72.3534 254.361 71.92 253.443 71.8685C252.526 71.8179 251.629 72.1529 250.976 72.7925C250.323 73.4311 249.975 74.3141 250.018 75.2209C250.061 76.1287 250.491 76.9755 251.202 77.5511L255.81 82.1055C257.078 83.356 259.131 83.356 260.398 82.1055L270.935 71.692C272.201 70.4406 272.201 68.4111 270.935 67.1597L266.327 62.5833C265.795 62.02 265.436 61.3194 265.291 60.5624C265.145 59.8055 265.219 59.0237 265.504 58.3067C265.508 58.2352 265.508 58.1646 265.504 58.0929C265.796 57.3121 266.326 56.6391 267.018 56.1647C267.711 55.6902 268.535 55.4382 269.378 55.4411H275.869C277.661 55.4411 279.114 54.0054 279.114 52.2337V37.5017C279.114 35.7301 277.661 34.2944 275.869 34.2944Z" fill="#79E3BD"/>
</g>
</g>
<path d="M87.7534 177.456C86.4414 177.424 85.1614 177.184 83.9134 176.736C82.6654 176.288 81.5774 175.68 80.6494 174.912C79.7214 174.144 79.0574 173.272 78.6574 172.296L81.5614 171.048C81.8174 171.672 82.2894 172.248 82.9774 172.776C83.6814 173.288 84.4814 173.704 85.3774 174.024C86.2734 174.328 87.1614 174.48 88.0414 174.48C89.0174 174.48 89.9294 174.32 90.7774 174C91.6254 173.68 92.3134 173.224 92.8414 172.632C93.3854 172.024 93.6574 171.312 93.6574 170.496C93.6574 169.616 93.3694 168.928 92.7934 168.432C92.2174 167.92 91.4894 167.52 90.6094 167.232C89.7294 166.928 88.8254 166.64 87.8974 166.368C86.2014 165.904 84.7054 165.392 83.4094 164.832C82.1134 164.272 81.0974 163.56 80.3614 162.696C79.6414 161.816 79.2814 160.688 79.2814 159.312C79.2814 157.856 79.6894 156.6 80.5054 155.544C81.3374 154.472 82.4174 153.648 83.7454 153.072C85.0894 152.48 86.5214 152.184 88.0414 152.184C89.9934 152.184 91.7694 152.608 93.3694 153.456C94.9854 154.304 96.1534 155.432 96.8734 156.84L94.1614 158.448C93.8734 157.792 93.4174 157.224 92.7934 156.744C92.1694 156.264 91.4574 155.888 90.6574 155.616C89.8734 155.344 89.0734 155.2 88.2574 155.184C87.2334 155.168 86.2814 155.32 85.4014 155.64C84.5214 155.944 83.8094 156.4 83.2654 157.008C82.7374 157.616 82.4734 158.36 82.4734 159.24C82.4734 160.12 82.7374 160.792 83.2654 161.256C83.7934 161.704 84.5054 162.072 85.4014 162.36C86.3134 162.632 87.3374 162.952 88.4734 163.32C89.9294 163.784 91.2974 164.312 92.5774 164.904C93.8574 165.496 94.8894 166.232 95.6734 167.112C96.4574 167.992 96.8414 169.104 96.8254 170.448C96.8254 171.888 96.3934 173.144 95.5294 174.216C94.6654 175.288 93.5454 176.112 92.1694 176.688C90.7934 177.248 89.3214 177.504 87.7534 177.456ZM129.63 170.976L132.63 172.608C131.542 174.128 130.158 175.344 128.478 176.256C126.814 177.168 125.006 177.624 123.054 177.624C120.846 177.624 118.83 177.056 117.006 175.92C115.198 174.784 113.75 173.264 112.662 171.36C111.59 169.44 111.054 167.32 111.054 165C111.054 163.24 111.366 161.6 111.99 160.08C112.614 158.544 113.47 157.2 114.558 156.048C115.662 154.88 116.942 153.968 118.398 153.312C119.854 152.656 121.406 152.328 123.054 152.328C125.006 152.328 126.814 152.784 128.478 153.696C130.158 154.608 131.542 155.832 132.63 157.368L129.63 158.976C128.798 157.92 127.798 157.112 126.63 156.552C125.462 155.976 124.27 155.688 123.054 155.688C121.438 155.688 119.974 156.12 118.662 156.984C117.35 157.832 116.31 158.96 115.542 160.368C114.79 161.776 114.414 163.32 114.414 165C114.414 166.68 114.798 168.224 115.566 169.632C116.35 171.04 117.398 172.168 118.71 173.016C120.022 173.848 121.47 174.264 123.054 174.264C124.366 174.264 125.598 173.96 126.75 173.352C127.902 172.744 128.862 171.952 129.63 170.976ZM148.494 177V153H151.854V156.312C152.702 155.096 153.806 154.128 155.166 153.408C156.526 152.688 158.006 152.328 159.606 152.328C160.534 152.328 161.43 152.448 162.294 152.688L160.926 156.024C160.254 155.816 159.598 155.712 158.958 155.712C157.662 155.712 156.47 156.032 155.382 156.672C154.31 157.312 153.454 158.168 152.814 159.24C152.174 160.312 151.854 161.504 151.854 162.816V177H148.494ZM176.221 167.808V153H179.581V167.136C179.581 168.448 179.901 169.64 180.541 170.712C181.181 171.784 182.037 172.64 183.109 173.28C184.197 173.92 185.389 174.24 186.685 174.24C187.997 174.24 189.181 173.92 190.237 173.28C191.309 172.64 192.165 171.784 192.805 170.712C193.445 169.64 193.765 168.448 193.765 167.136V153H197.125L197.149 177H193.789L193.765 173.64C192.917 174.856 191.813 175.824 190.453 176.544C189.109 177.264 187.637 177.624 186.037 177.624C184.229 177.624 182.581 177.184 181.093 176.304C179.605 175.424 178.421 174.24 177.541 172.752C176.661 171.264 176.221 169.616 176.221 167.808ZM213.462 177V153H216.822V156.312C217.686 155.096 218.79 154.128 220.134 153.408C221.478 152.688 222.95 152.328 224.55 152.328C226.358 152.328 228.014 152.776 229.518 153.672C231.022 154.552 232.198 155.728 233.046 157.2C233.894 155.728 235.062 154.552 236.55 153.672C238.038 152.776 239.686 152.328 241.494 152.328C243.302 152.328 244.95 152.768 246.438 153.648C247.926 154.528 249.11 155.712 249.99 157.2C250.87 158.688 251.31 160.336 251.31 162.144V177H247.95V162.888C247.95 161.608 247.638 160.424 247.014 159.336C246.39 158.248 245.55 157.376 244.494 156.72C243.454 156.048 242.294 155.712 241.014 155.712C239.734 155.712 238.566 156.024 237.51 156.648C236.47 157.256 235.638 158.104 235.014 159.192C234.39 160.264 234.078 161.496 234.078 162.888V177H230.718V162.888C230.718 161.496 230.406 160.264 229.782 159.192C229.158 158.104 228.318 157.256 227.262 156.648C226.206 156.024 225.038 155.712 223.758 155.712C222.494 155.712 221.334 156.048 220.278 156.72C219.222 157.376 218.382 158.248 217.758 159.336C217.134 160.424 216.822 161.608 216.822 162.888V177H213.462ZM267.65 177V143.4H278.762C281.082 143.4 283.258 143.84 285.29 144.72C287.322 145.584 289.106 146.792 290.642 148.344C292.178 149.88 293.378 151.664 294.242 153.696C295.122 155.712 295.562 157.88 295.562 160.2C295.562 162.52 295.122 164.696 294.242 166.728C293.378 168.744 292.178 170.528 290.642 172.08C289.106 173.616 287.322 174.824 285.29 175.704C283.258 176.568 281.082 177 278.762 177H267.65ZM271.01 173.64H278.762C280.618 173.64 282.354 173.296 283.97 172.608C285.602 171.904 287.034 170.936 288.266 169.704C289.498 168.472 290.458 167.048 291.146 165.432C291.85 163.8 292.202 162.056 292.202 160.2C292.202 158.344 291.85 156.608 291.146 154.992C290.458 153.36 289.49 151.928 288.242 150.696C287.01 149.464 285.586 148.504 283.97 147.816C282.354 147.112 280.618 146.76 278.762 146.76H271.01V173.64ZM311.964 177.624C310.172 177.624 308.436 177.344 306.756 176.784C305.092 176.224 303.636 175.424 302.388 174.384C301.14 173.344 300.26 172.104 299.748 170.664L302.892 169.488C303.244 170.48 303.884 171.336 304.812 172.056C305.756 172.76 306.852 173.304 308.1 173.688C309.364 174.072 310.652 174.264 311.964 174.264C313.5 174.264 314.932 174.008 316.26 173.496C317.588 172.984 318.66 172.272 319.476 171.36C320.292 170.432 320.7 169.344 320.7 168.096C320.7 166.832 320.276 165.792 319.428 164.976C318.58 164.16 317.484 163.52 316.14 163.056C314.812 162.576 313.42 162.208 311.964 161.952C309.676 161.552 307.62 161.008 305.796 160.32C303.988 159.632 302.556 158.664 301.5 157.416C300.444 156.152 299.916 154.488 299.916 152.424C299.916 150.488 300.476 148.808 301.596 147.384C302.716 145.96 304.188 144.856 306.012 144.072C307.852 143.288 309.836 142.896 311.964 142.896C313.708 142.896 315.412 143.168 317.076 143.712C318.74 144.256 320.204 145.048 321.468 146.088C322.748 147.128 323.668 148.4 324.228 149.904L321.036 151.056C320.684 150.048 320.036 149.192 319.092 148.488C318.164 147.768 317.076 147.224 315.828 146.856C314.58 146.472 313.292 146.28 311.964 146.28C310.444 146.264 309.02 146.52 307.692 147.048C306.38 147.56 305.316 148.28 304.5 149.208C303.684 150.12 303.276 151.192 303.276 152.424C303.276 153.864 303.652 154.976 304.404 155.76C305.172 156.528 306.212 157.104 307.524 157.488C308.836 157.872 310.316 158.216 311.964 158.52C314.108 158.888 316.1 159.464 317.94 160.248C319.78 161.016 321.26 162.048 322.38 163.344C323.5 164.624 324.06 166.208 324.06 168.096C324.06 170.016 323.5 171.696 322.38 173.136C321.26 174.56 319.78 175.664 317.94 176.448C316.116 177.232 314.124 177.624 311.964 177.624Z" fill="#79E3BD"/>
</g>
<defs>
<clipPath id="clip0_203_89">
<rect width="396" height="199" fill="white"/>
</clipPath>
<clipPath id="clip1_203_89">
<rect width="132.57" height="131.01" fill="white" transform="translate(148.933 -0.495239)"/>
</clipPath>
<clipPath id="clip2_203_89">
<rect width="128.642" height="126.157" fill="white" transform="translate(151.388 -0.495239)"/>
</clipPath>
</defs>
</svg>
