<svg width="30" height="33" viewBox="0 0 30 33" fill="none" xmlns="http://www.w3.org/2000/svg">
<path d="M20.5269 2.34945C19.1236 0.834352 17.1635 0 15.0001 0C12.8252 0 10.8586 0.829304 9.4618 2.33503C8.04982 3.85735 7.36186 5.92628 7.52339 8.16035C7.84357 12.5679 11.1976 16.1534 15.0001 16.1534C18.8026 16.1534 22.1509 12.5686 22.4761 8.16179C22.6398 5.94791 21.9475 3.88331 20.5269 2.34945Z" fill="#39574C"/>
<path d="M27.692 32.3068H2.30804C1.97579 32.3112 1.64675 32.2414 1.34487 32.1025C1.04299 31.9637 0.77585 31.7593 0.562897 31.5042C0.0941599 30.9439 -0.0947773 30.1788 0.0451227 29.405C0.65376 26.0286 2.55323 23.1924 5.53872 21.2014C8.19105 19.4339 11.5508 18.4611 15 18.4611C18.4492 18.4611 21.8089 19.4346 24.4613 21.2014C27.4468 23.1917 29.3462 26.0279 29.9549 29.4043C30.0948 30.178 29.9058 30.9432 29.4371 31.5035C29.2242 31.7587 28.9571 31.9632 28.6552 32.1022C28.3533 32.2412 28.0243 32.3111 27.692 32.3068Z" fill="#39574C"/>
</svg>