<svg width="287" height="100" viewBox="0 0 287 100" fill="none" xmlns="http://www.w3.org/2000/svg">
<g clip-path="url(#clip0_256_309)">
<path d="M68.7055 53.6H63.8091C62.9734 53.5774 62.1777 53.2342 61.5868 52.6426C60.9959 52.0502 60.6549 51.2539 60.6345 50.4173C60.6134 49.5816 60.9143 48.7691 61.4753 48.1484L64.9517 44.672C65.4144 44.2151 65.6745 43.5922 65.6745 42.9415C65.6745 42.2916 65.4144 41.6686 64.9517 41.2117L57.0031 33.2631C56.5463 32.8005 55.9232 32.5403 55.2733 32.5403C54.6234 32.5403 54.0004 32.8005 53.5436 33.2631L50.0504 36.7234C49.5899 37.1592 49.0092 37.4462 48.3833 37.5482C47.7581 37.6503 47.1162 37.5613 46.5413 37.2947C45.9657 37.0717 45.4688 36.6827 45.114 36.177C44.7598 35.6713 44.5631 35.0724 44.55 34.4545V29.5581C44.55 28.2065 43.4541 27.1099 42.1017 27.1099H30.9057C29.5534 27.1099 28.4574 28.2065 28.4574 29.5581V34.4545C28.4298 35.296 28.0778 36.0946 27.4753 36.6826C26.8727 37.2706 26.0661 37.6036 25.2246 37.6109C24.3823 37.6189 23.5699 37.3005 22.9571 36.7234L19.4808 33.247C18.5073 32.3348 16.9932 32.3348 16.0205 33.247L8.07186 41.163C7.60917 41.6199 7.34906 42.2428 7.34906 42.8928C7.34906 43.5427 7.60917 44.1664 8.07186 44.6233L11.5483 48.1483C11.973 48.5979 12.2565 49.1625 12.3636 49.7717C12.4707 50.3808 12.3978 51.0082 12.1523 51.5758C11.9285 52.1667 11.5315 52.676 11.0127 53.0374C10.4946 53.3988 9.87892 53.5948 9.2472 53.5999H4.3508C2.99846 53.5999 1.90259 54.6958 1.90259 56.0481V67.2938C1.90259 68.6461 2.99846 69.7413 4.3508 69.7413H9.2472C10.091 69.7654 10.8917 70.1144 11.4834 70.7162C12.075 71.3181 12.4102 72.1254 12.4196 72.9691C12.4283 73.8129 12.1107 74.6274 11.5322 75.2415L8.07183 78.7185C7.60914 79.1748 7.34902 79.7978 7.34902 80.4489C7.34902 81.0985 7.60914 81.7215 8.07183 82.1785L16.0204 90.1267C16.4773 90.5896 17.1003 90.8496 17.7502 90.8496C18.4008 90.8496 19.0238 90.5896 19.4807 90.1267L22.9571 86.6504C23.4241 86.2259 24.0041 85.9467 24.6271 85.8445C25.25 85.7437 25.8883 85.8252 26.4662 86.0793C27.0462 86.3059 27.5445 86.7 27.8994 87.2119C28.2542 87.7237 28.448 88.3296 28.4575 88.9519V93.8482C28.4575 95.2008 29.5534 96.2963 30.9057 96.2963H42.1514C43.5037 96.2963 44.5989 95.2008 44.5989 93.8482V88.9519C44.6295 88.1193 44.9778 87.3296 45.5709 86.7452C46.1647 86.1608 46.9589 85.8259 47.7917 85.8082C48.6246 85.7904 49.4326 86.0919 50.0504 86.6504L53.5268 90.1274C53.9836 90.5896 54.6066 90.8496 55.2572 90.8496C55.9072 90.8496 56.5302 90.5896 56.987 90.1274L64.9356 82.1785C65.8901 81.2222 65.8901 79.6741 64.9356 78.7178L61.4753 75.2415C61.0396 74.7815 60.7525 74.2008 60.6505 73.5747C60.5485 72.9495 60.6374 72.3076 60.904 71.7327C61.127 71.1571 61.5161 70.6602 62.0218 70.3053C62.5274 69.9512 63.1264 69.7545 63.7443 69.7413H68.6407C69.9923 69.7413 71.0889 68.6455 71.0889 67.2931V56.0482C71.0889 54.7206 70.0323 53.6349 68.7055 53.6ZM36.5198 77.2504C32.3855 77.2504 28.4195 75.6074 25.4963 72.6832C22.5729 69.7591 20.9313 65.7931 20.9328 61.6583C20.9343 57.5233 22.5788 53.5581 25.5043 50.6362C28.4298 47.7137 32.3964 46.0736 36.5306 46.0765C40.6656 46.0794 44.6301 47.7254 47.5512 50.6516C50.4723 53.5779 52.1109 57.5451 52.1066 61.6802C52.1023 65.8108 50.4585 69.7716 47.5359 72.6912C44.6134 75.6096 40.6512 77.2504 36.5198 77.2504Z" fill="#79E3BD"/>
<path d="M63.5817 19.0472C59.7994 19.0574 56.1496 20.444 53.3153 22.9476C52.8308 23.3804 52.5378 23.9887 52.5007 24.6373C52.4642 25.2864 52.6865 25.9233 53.1193 26.4079C54.0206 27.4177 55.5697 27.5051 56.5796 26.6039C59.3447 24.4194 63.0076 23.7382 66.3731 24.7816C69.7387 25.8256 72.3734 28.4604 73.4177 31.826C74.4611 35.1916 73.7798 38.8545 71.5954 41.6196C70.702 42.6316 70.7888 44.1749 71.7914 45.0799C72.8034 45.9732 74.3466 45.8858 75.2517 44.8839C77.9121 41.8703 79.3047 37.9445 79.1395 33.9275C78.9743 29.9113 77.2632 26.1136 74.3642 23.3282C71.4649 20.5433 67.6017 18.9863 63.5818 18.9818L63.5817 19.0472Z" fill="#79E3BD"/>
<path d="M95.7505 26.555H90.8542C90.2386 26.5448 89.6386 26.3518 89.1327 26.0005C88.6275 25.6486 88.2379 25.1539 88.0142 24.5797V24.4325V24.4333C87.7771 23.8707 87.7097 23.2514 87.8201 22.651C87.9297 22.0513 88.2134 21.4961 88.6349 21.0546L92.1112 17.5782C93.0653 16.6222 93.0653 15.0739 92.1112 14.1179L84.0808 6.16929C83.1082 5.25705 81.5942 5.25705 80.6201 6.16929L77.1438 9.64563C76.7023 10.0668 76.1475 10.3502 75.5477 10.4603C74.9472 10.5703 74.3279 10.5033 73.7654 10.2664H73.6182C73.0309 10.0376 72.5282 9.63548 72.1755 9.11378C71.8228 8.59133 71.6371 7.97489 71.6436 7.34461V2.44821C71.6436 1.09587 70.5477 0 69.1954 0H57.9504C56.5981 0 55.5022 1.09587 55.5022 2.44821V7.34461C55.492 7.9603 55.299 8.56 54.947 9.06563C54.5958 9.57133 54.1011 9.96119 53.5269 10.1848H53.3637C52.818 10.4201 52.2154 10.4945 51.6288 10.399C51.0415 10.3036 50.4936 10.0427 50.0506 9.64563L46.5255 6.16927C45.5521 5.25703 44.0379 5.25703 43.0652 6.16927L35.1166 14.1179C34.6539 14.5747 34.3938 15.1977 34.3938 15.8476C34.3938 16.4983 34.6539 17.1213 35.1166 17.5781L38.6257 21.0545C39.5903 21.9536 41.0934 21.9267 42.0255 20.9947C42.9582 20.0621 42.9844 18.5589 42.086 17.5943L40.2579 15.8478L44.7461 11.3595L46.4927 13.106C47.6286 14.2136 49.0677 14.9596 50.6277 15.2504C52.1877 15.5411 53.7987 15.3626 55.2574 14.7381H55.3877C56.8385 14.1348 58.0779 13.1155 58.9494 11.8083C59.8208 10.5012 60.285 8.96445 60.2842 7.39353V4.89644H66.6335L66.6328 7.34465C66.6371 8.91267 67.1042 10.4442 67.9749 11.7477C68.8464 13.0512 70.0829 14.069 71.5292 14.6733L71.7085 14.7548C73.1672 15.3785 74.7789 15.557 76.3386 15.2664C77.8979 14.9764 79.3371 14.2302 80.4742 13.1227L82.2201 11.3762L86.709 15.8645L84.9623 17.611C83.8527 18.7455 83.1046 20.1846 82.8142 21.7453C82.5238 23.3053 82.7031 24.917 83.3297 26.375V26.5549C83.9342 28.0013 84.9512 29.2378 86.2549 30.1093C87.5586 30.98 89.0897 31.447 90.6579 31.4514H93.3023V37.8007L90.8542 37.7999C89.2831 37.7992 87.746 38.2633 86.4394 39.1356C85.132 40.007 84.1127 41.2456 83.509 42.6964V42.8276C82.8845 44.2863 82.7068 45.8973 82.9971 47.4564C83.2875 49.0165 84.0342 50.4555 85.1416 51.5915L86.8875 53.338L82.3505 57.9408L80.6045 56.1455C80.169 55.6056 79.5268 55.2747 78.8342 55.2354C78.1423 55.1968 77.466 55.4525 76.9734 55.9407C76.4808 56.4282 76.2186 57.1021 76.2505 57.7944C76.2831 58.4873 76.6075 59.1336 77.1438 59.573L80.6201 63.0493C81.5764 64.0039 83.1245 64.0039 84.0808 63.0493L92.029 55.1007C92.9838 54.1455 92.9838 52.5964 92.029 51.6412L88.5527 48.148C88.152 47.7181 87.8808 47.1833 87.7712 46.6055C87.6616 46.0277 87.7171 45.431 87.932 44.8837C87.9349 44.8291 87.9349 44.7752 87.932 44.7205C88.1527 44.1245 88.552 43.6108 89.0742 43.2487C89.5971 42.8865 90.2186 42.6941 90.8542 42.6964H95.7505C97.1023 42.6964 98.1986 41.6005 98.1986 40.2481V29.0032C98.1986 27.6509 97.1023 26.555 95.7505 26.555Z" fill="#79E3BD"/>
</g>
<path d="M127.302 60.304C126.427 60.2827 125.574 60.1227 124.742 59.824C123.91 59.5253 123.184 59.12 122.566 58.608C121.947 58.096 121.504 57.5147 121.238 56.864L123.174 56.032C123.344 56.448 123.659 56.832 124.118 57.184C124.587 57.5253 125.12 57.8027 125.718 58.016C126.315 58.2187 126.907 58.32 127.494 58.32C128.144 58.32 128.752 58.2133 129.318 58C129.883 57.7867 130.342 57.4827 130.694 57.088C131.056 56.6827 131.238 56.208 131.238 55.664C131.238 55.0773 131.046 54.6187 130.662 54.288C130.278 53.9467 129.792 53.68 129.206 53.488C128.619 53.2853 128.016 53.0933 127.398 52.912C126.267 52.6027 125.27 52.2613 124.406 51.888C123.542 51.5147 122.864 51.04 122.374 50.464C121.894 49.8773 121.654 49.1253 121.654 48.208C121.654 47.2373 121.926 46.4 122.47 45.696C123.024 44.9813 123.744 44.432 124.63 44.048C125.526 43.6533 126.48 43.456 127.494 43.456C128.795 43.456 129.979 43.7387 131.046 44.304C132.123 44.8693 132.902 45.6213 133.382 46.56L131.574 47.632C131.382 47.1947 131.078 46.816 130.662 46.496C130.246 46.176 129.771 45.9253 129.238 45.744C128.715 45.5627 128.182 45.4667 127.638 45.456C126.955 45.4453 126.32 45.5467 125.734 45.76C125.147 45.9627 124.672 46.2667 124.31 46.672C123.958 47.0773 123.782 47.5733 123.782 48.16C123.782 48.7467 123.958 49.1947 124.31 49.504C124.662 49.8027 125.136 50.048 125.734 50.24C126.342 50.4213 127.024 50.6347 127.782 50.88C128.752 51.1893 129.664 51.5413 130.518 51.936C131.371 52.3307 132.059 52.8213 132.582 53.408C133.104 53.9947 133.36 54.736 133.35 55.632C133.35 56.592 133.062 57.4293 132.486 58.144C131.91 58.8587 131.163 59.408 130.246 59.792C129.328 60.1653 128.347 60.336 127.302 60.304ZM155.219 55.984L157.219 57.072C156.494 58.0853 155.571 58.896 154.451 59.504C153.342 60.112 152.136 60.416 150.835 60.416C149.363 60.416 148.019 60.0373 146.803 59.28C145.598 58.5227 144.632 57.5093 143.907 56.24C143.192 54.96 142.835 53.5467 142.835 52C142.835 50.8267 143.043 49.7333 143.459 48.72C143.875 47.696 144.446 46.8 145.171 46.032C145.907 45.2533 146.76 44.6453 147.731 44.208C148.702 43.7707 149.736 43.552 150.835 43.552C152.136 43.552 153.342 43.856 154.451 44.464C155.571 45.072 156.494 45.888 157.219 46.912L155.219 47.984C154.664 47.28 153.998 46.7413 153.219 46.368C152.44 45.984 151.646 45.792 150.835 45.792C149.758 45.792 148.782 46.08 147.907 46.656C147.032 47.2213 146.339 47.9733 145.827 48.912C145.326 49.8507 145.075 50.88 145.075 52C145.075 53.12 145.331 54.1493 145.843 55.088C146.366 56.0267 147.064 56.7787 147.939 57.344C148.814 57.8987 149.779 58.176 150.835 58.176C151.71 58.176 152.531 57.9733 153.299 57.568C154.067 57.1627 154.707 56.6347 155.219 55.984ZM167.795 60V44H170.035V46.208C170.6 45.3973 171.336 44.752 172.243 44.272C173.15 43.792 174.136 43.552 175.203 43.552C175.822 43.552 176.419 43.632 176.995 43.792L176.083 46.016C175.635 45.8773 175.198 45.808 174.771 45.808C173.907 45.808 173.112 46.0213 172.387 46.448C171.672 46.8747 171.102 47.4453 170.675 48.16C170.248 48.8747 170.035 49.6693 170.035 50.544V60H167.795ZM186.28 53.872V44H188.52V53.424C188.52 54.2987 188.733 55.0933 189.16 55.808C189.587 56.5227 190.157 57.0933 190.872 57.52C191.597 57.9467 192.392 58.16 193.256 58.16C194.131 58.16 194.92 57.9467 195.624 57.52C196.339 57.0933 196.909 56.5227 197.336 55.808C197.763 55.0933 197.976 54.2987 197.976 53.424V44H200.216L200.232 60H197.992L197.976 57.76C197.411 58.5707 196.675 59.216 195.768 59.696C194.872 60.176 193.891 60.416 192.824 60.416C191.619 60.416 190.52 60.1227 189.528 59.536C188.536 58.9493 187.747 58.16 187.16 57.168C186.573 56.176 186.28 55.0773 186.28 53.872ZM211.108 60V44H213.348V46.208C213.924 45.3973 214.66 44.752 215.556 44.272C216.452 43.792 217.433 43.552 218.5 43.552C219.705 43.552 220.809 43.8507 221.812 44.448C222.814 45.0347 223.598 45.8187 224.164 46.8C224.729 45.8187 225.508 45.0347 226.5 44.448C227.492 43.8507 228.59 43.552 229.796 43.552C231.001 43.552 232.1 43.8453 233.092 44.432C234.084 45.0187 234.873 45.808 235.46 46.8C236.046 47.792 236.34 48.8907 236.34 50.096V60H234.1V50.592C234.1 49.7387 233.892 48.9493 233.476 48.224C233.06 47.4987 232.5 46.9173 231.796 46.48C231.102 46.032 230.329 45.808 229.476 45.808C228.622 45.808 227.844 46.016 227.14 46.432C226.446 46.8373 225.892 47.4027 225.476 48.128C225.06 48.8427 224.852 49.664 224.852 50.592V60H222.612V50.592C222.612 49.664 222.404 48.8427 221.988 48.128C221.572 47.4027 221.012 46.8373 220.308 46.432C219.604 46.016 218.825 45.808 217.972 45.808C217.129 45.808 216.356 46.032 215.652 46.48C214.948 46.9173 214.388 47.4987 213.972 48.224C213.556 48.9493 213.348 49.7387 213.348 50.592V60H211.108ZM247.233 60V37.6H254.641C256.187 37.6 257.638 37.8933 258.993 38.48C260.347 39.056 261.537 39.8613 262.561 40.896C263.585 41.92 264.385 43.1093 264.961 44.464C265.547 45.808 265.841 47.2533 265.841 48.8C265.841 50.3467 265.547 51.7973 264.961 53.152C264.385 54.496 263.585 55.6853 262.561 56.72C261.537 57.744 260.347 58.5493 258.993 59.136C257.638 59.712 256.187 60 254.641 60H247.233ZM249.473 57.76H254.641C255.878 57.76 257.035 57.5307 258.113 57.072C259.201 56.6027 260.155 55.9573 260.977 55.136C261.798 54.3147 262.438 53.3653 262.897 52.288C263.366 51.2 263.601 50.0373 263.601 48.8C263.601 47.5627 263.366 46.4053 262.897 45.328C262.438 44.24 261.793 43.2853 260.961 42.464C260.139 41.6427 259.19 41.0027 258.113 40.544C257.035 40.0747 255.878 39.84 254.641 39.84H249.473V57.76ZM276.775 60.416C275.581 60.416 274.423 60.2293 273.303 59.856C272.194 59.4827 271.223 58.9493 270.391 58.256C269.559 57.5627 268.973 56.736 268.631 55.776L270.727 54.992C270.962 55.6533 271.389 56.224 272.007 56.704C272.637 57.1733 273.367 57.536 274.199 57.792C275.042 58.048 275.901 58.176 276.775 58.176C277.799 58.176 278.754 58.0053 279.639 57.664C280.525 57.3227 281.239 56.848 281.783 56.24C282.327 55.6213 282.599 54.896 282.599 54.064C282.599 53.2213 282.317 52.528 281.751 51.984C281.186 51.44 280.455 51.0133 279.559 50.704C278.674 50.384 277.746 50.1387 276.775 49.968C275.25 49.7013 273.879 49.3387 272.663 48.88C271.458 48.4213 270.503 47.776 269.799 46.944C269.095 46.1013 268.743 44.992 268.743 43.616C268.743 42.3253 269.117 41.2053 269.863 40.256C270.61 39.3067 271.591 38.5707 272.807 38.048C274.034 37.5253 275.357 37.264 276.775 37.264C277.938 37.264 279.074 37.4453 280.183 37.808C281.293 38.1707 282.269 38.6987 283.111 39.392C283.965 40.0853 284.578 40.9333 284.951 41.936L282.823 42.704C282.589 42.032 282.157 41.4613 281.527 40.992C280.909 40.512 280.183 40.1493 279.351 39.904C278.519 39.648 277.661 39.52 276.775 39.52C275.762 39.5093 274.813 39.68 273.927 40.032C273.053 40.3733 272.343 40.8533 271.799 41.472C271.255 42.08 270.983 42.7947 270.983 43.616C270.983 44.576 271.234 45.3173 271.735 45.84C272.247 46.352 272.941 46.736 273.815 46.992C274.69 47.248 275.677 47.4773 276.775 47.68C278.205 47.9253 279.533 48.3093 280.759 48.832C281.986 49.344 282.973 50.032 283.719 50.896C284.466 51.7493 284.839 52.8053 284.839 54.064C284.839 55.344 284.466 56.464 283.719 57.424C282.973 58.3733 281.986 59.1093 280.759 59.632C279.543 60.1547 278.215 60.416 276.775 60.416Z" fill="#79E3BD"/>
<defs>
<clipPath id="clip0_256_309">
<rect width="97.037" height="96.2963" fill="white" transform="translate(1.85205)"/>
</clipPath>
</defs>
</svg>
