<svg width="200" height="200" viewBox="0 0 200 200" fill="none" xmlns="http://www.w3.org/2000/svg">
<rect x="0.5" y="0.5" width="199" height="199" stroke="black"/>
<path d="M99.5624 40C67.7716 40 42 65.7716 42 97.5624C42 129.353 67.7716 155.125 99.5624 155.125C131.353 155.125 157.125 129.353 157.125 97.5624C157.125 65.7716 131.353 40 99.5624 40Z" stroke="black" stroke-width="5" stroke-linecap="round" stroke-linejoin="round"/>
<path d="M55.0725 134.09C55.0725 134.09 67.9033 117.709 99.5625 117.709C131.222 117.709 144.053 134.09 144.053 134.09" stroke="black" stroke-width="5" stroke-linecap="round" stroke-linejoin="round"/>
<path d="M99.5624 97.5624C109.1 97.5624 116.831 89.8312 116.831 80.2937C116.831 70.7565 109.1 63.025 99.5624 63.025C90.0249 63.025 82.2937 70.7565 82.2937 80.2937C82.2937 89.8312 90.0249 97.5624 99.5624 97.5624Z" stroke="black" stroke-width="5" stroke-linecap="round" stroke-linejoin="round"/>
</svg>

