<svg width="24" height="25" viewBox="0 0 22 22" fill="none" xmlns="http://www.w3.org/2000/svg">
<path d="M11 1C5.47772 1 1 5.47772 1 11C1 16.5223 5.47772 21 11 21C16.5223 21 21 16.5223 21 11C21 5.47772 16.5223 1 11 1Z" stroke="#81D8F7" stroke-width="2" stroke-miterlimit="10"/>
<path d="M9.47827 9.47826H11.2174V15.7826" stroke="#81D8F7" stroke-width="2" stroke-linecap="round" stroke-linejoin="round"/>
<path d="M8.82617 16H13.6088" stroke="#81D8F7" stroke-width="2" stroke-miterlimit="10" stroke-linecap="round"/>
<path d="M10.4927 5.24084C10.6428 5.14051 10.8194 5.08696 11 5.08696C11.2421 5.08696 11.4743 5.18315 11.6456 5.35438L11.9991 5.00083L11.6456 5.35438C11.8168 5.52561 11.913 5.75785 11.913 6C11.913 6.18059 11.8595 6.35711 11.7591 6.50726C11.6588 6.65741 11.5162 6.77444 11.3494 6.84355C11.1825 6.91265 10.9989 6.93073 10.8218 6.8955C10.6447 6.86027 10.482 6.77331 10.3543 6.64562C10.2266 6.51793 10.1397 6.35524 10.1045 6.17813C10.0692 6.00102 10.0873 5.81743 10.1564 5.6506C10.2255 5.48376 10.3425 5.34116 10.4927 5.24084Z" fill="#81D8F7" stroke="#81D8F7"/>
</svg>

