<svg width="5" height="18" viewBox="0 0 5 18" fill="none" xmlns="http://www.w3.org/2000/svg">
<path d="M2.31817 10.6666C3.37086 10.6666 4.22423 9.7712 4.22423 8.66663C4.22423 7.56206 3.37086 6.66663 2.31817 6.66663C1.26548 6.66663 0.412109 7.56206 0.412109 8.66663C0.412109 9.7712 1.26548 10.6666 2.31817 10.6666Z" fill="black"/>
<path d="M2.31817 17.3333C3.37086 17.3333 4.22423 16.4379 4.22423 15.3333C4.22423 14.2287 3.37086 13.3333 2.31817 13.3333C1.26548 13.3333 0.412109 14.2287 0.412109 15.3333C0.412109 16.4379 1.26548 17.3333 2.31817 17.3333Z" fill="black"/>
<path d="M2.31817 4C3.37086 4 4.22423 3.10457 4.22423 2C4.22423 0.895431 3.37086 0 2.31817 0C1.26548 0 0.412109 0.895431 0.412109 2C0.412109 3.10457 1.26548 4 2.31817 4Z" fill="black"/>
</svg>
