<svg width="145" height="25" viewBox="0 0 145 25" fill="none" xmlns="http://www.w3.org/2000/svg">
<path d="M47.4141 9.625H49.5625V17.1797C49.5625 18.0495 49.375 18.7812 49 19.375C48.625 19.9635 48.1146 20.4089 47.4688 20.7109C46.8229 21.0078 46.0885 21.1562 45.2656 21.1562C44.4323 21.1562 43.6901 21.0078 43.0391 20.7109C42.388 20.4089 41.8776 19.9635 41.5078 19.375C41.138 18.7812 40.9531 18.0495 40.9531 17.1797V9.625H43.1016V17.1797C43.1016 17.7109 43.1901 18.1458 43.3672 18.4844C43.5443 18.8177 43.7943 19.0651 44.1172 19.2266C44.4401 19.388 44.8229 19.4688 45.2656 19.4688C45.7135 19.4688 46.0964 19.388 46.4141 19.2266C46.737 19.0651 46.9844 18.8177 47.1562 18.4844C47.3281 18.1458 47.4141 17.7109 47.4141 17.1797V9.625ZM53.5078 14.1719V24.25H51.4375V12.5469H53.3516L53.5078 14.1719ZM58.9375 16.6875V16.8516C58.9375 17.4661 58.8646 18.0365 58.7188 18.5625C58.5781 19.0833 58.3698 19.5391 58.0938 19.9297C57.8177 20.3151 57.474 20.6172 57.0625 20.8359C56.6562 21.0495 56.1875 21.1562 55.6562 21.1562C55.1354 21.1562 54.6823 21.0573 54.2969 20.8594C53.9115 20.6562 53.5859 20.3698 53.3203 20C53.0547 19.6302 52.8411 19.2005 52.6797 18.7109C52.5234 18.2161 52.4062 17.6771 52.3281 17.0938V16.5703C52.4062 15.9505 52.5234 15.388 52.6797 14.8828C52.8411 14.3724 53.0547 13.9323 53.3203 13.5625C53.5859 13.1875 53.9089 12.8984 54.2891 12.6953C54.6745 12.4922 55.125 12.3906 55.6406 12.3906C56.1771 12.3906 56.6484 12.4922 57.0547 12.6953C57.4661 12.8984 57.8125 13.1901 58.0938 13.5703C58.375 13.9505 58.5859 14.4036 58.7266 14.9297C58.8672 15.4557 58.9375 16.0417 58.9375 16.6875ZM56.8672 16.8516V16.6875C56.8672 16.3125 56.8333 15.9661 56.7656 15.6484C56.6979 15.3255 56.5938 15.0443 56.4531 14.8047C56.3125 14.5599 56.1302 14.3698 55.9062 14.2344C55.6823 14.099 55.4115 14.0312 55.0938 14.0312C54.776 14.0312 54.5026 14.0833 54.2734 14.1875C54.0443 14.2917 53.8568 14.4401 53.7109 14.6328C53.5651 14.8255 53.4505 15.0547 53.3672 15.3203C53.2891 15.5807 53.237 15.8698 53.2109 16.1875V17.4844C53.2578 17.8698 53.349 18.2161 53.4844 18.5234C53.6198 18.8307 53.8177 19.0755 54.0781 19.2578C54.3438 19.4401 54.6875 19.5312 55.1094 19.5312C55.4271 19.5312 55.6979 19.4609 55.9219 19.3203C56.1458 19.1797 56.3281 18.987 56.4688 18.7422C56.6094 18.4922 56.7109 18.2057 56.7734 17.8828C56.8359 17.5599 56.8672 17.2161 56.8672 16.8516ZM62.6328 9V21H60.5625V9H62.6328ZM64.2344 16.8594V16.6953C64.2344 16.0755 64.3229 15.5052 64.5 14.9844C64.6771 14.4583 64.9349 14.0026 65.2734 13.6172C65.612 13.2318 66.026 12.9323 66.5156 12.7188C67.0052 12.5 67.5625 12.3906 68.1875 12.3906C68.8229 12.3906 69.3854 12.5 69.875 12.7188C70.3698 12.9323 70.7865 13.2318 71.125 13.6172C71.4635 14.0026 71.7214 14.4583 71.8984 14.9844C72.0755 15.5052 72.1641 16.0755 72.1641 16.6953V16.8594C72.1641 17.474 72.0755 18.0443 71.8984 18.5703C71.7214 19.0911 71.4635 19.5469 71.125 19.9375C70.7865 20.3229 70.3724 20.6224 69.8828 20.8359C69.3932 21.0495 68.8333 21.1562 68.2031 21.1562C67.5781 21.1562 67.0182 21.0495 66.5234 20.8359C66.0286 20.6224 65.612 20.3229 65.2734 19.9375C64.9349 19.5469 64.6771 19.0911 64.5 18.5703C64.3229 18.0443 64.2344 17.474 64.2344 16.8594ZM66.2969 16.6953V16.8594C66.2969 17.2292 66.3333 17.5755 66.4062 17.8984C66.4792 18.2214 66.5911 18.5052 66.7422 18.75C66.8932 18.9948 67.0885 19.1875 67.3281 19.3281C67.5729 19.4635 67.8646 19.5312 68.2031 19.5312C68.5365 19.5312 68.8229 19.4635 69.0625 19.3281C69.3021 19.1875 69.4974 18.9948 69.6484 18.75C69.8047 18.5052 69.9193 18.2214 69.9922 17.8984C70.0651 17.5755 70.1016 17.2292 70.1016 16.8594V16.6953C70.1016 16.3307 70.0651 15.9896 69.9922 15.6719C69.9193 15.349 69.8047 15.0651 69.6484 14.8203C69.4974 14.5703 69.2995 14.375 69.0547 14.2344C68.8151 14.0885 68.526 14.0156 68.1875 14.0156C67.8542 14.0156 67.5677 14.0885 67.3281 14.2344C67.0885 14.375 66.8932 14.5703 66.7422 14.8203C66.5911 15.0651 66.4792 15.349 66.4062 15.6719C66.3333 15.9896 66.2969 16.3307 66.2969 16.6953ZM78.3203 19.2031V15.3047C78.3203 15.0182 78.2708 14.7708 78.1719 14.5625C78.0729 14.3542 77.9219 14.1927 77.7188 14.0781C77.5156 13.9635 77.2578 13.9062 76.9453 13.9062C76.6693 13.9062 76.4271 13.9531 76.2188 14.0469C76.0156 14.1406 75.8594 14.2734 75.75 14.4453C75.6406 14.612 75.5859 14.8047 75.5859 15.0234H73.5156C73.5156 14.6745 73.599 14.3438 73.7656 14.0312C73.9323 13.7135 74.1693 13.4323 74.4766 13.1875C74.7891 12.9375 75.1615 12.7422 75.5938 12.6016C76.0312 12.4609 76.5208 12.3906 77.0625 12.3906C77.7031 12.3906 78.2734 12.5 78.7734 12.7188C79.2786 12.9323 79.6745 13.2552 79.9609 13.6875C80.2526 14.1198 80.3984 14.6641 80.3984 15.3203V19.0078C80.3984 19.4297 80.4245 19.7917 80.4766 20.0938C80.5339 20.3906 80.6172 20.6484 80.7266 20.8672V21H78.625C78.526 20.7865 78.4505 20.5156 78.3984 20.1875C78.3464 19.8542 78.3203 19.526 78.3203 19.2031ZM78.6094 15.8516L78.625 17.0781H77.3203C76.9974 17.0781 76.7135 17.112 76.4688 17.1797C76.224 17.2422 76.0234 17.3359 75.8672 17.4609C75.7109 17.5807 75.5938 17.7266 75.5156 17.8984C75.4375 18.0651 75.3984 18.2552 75.3984 18.4688C75.3984 18.6771 75.4453 18.8646 75.5391 19.0312C75.638 19.1979 75.7786 19.3307 75.9609 19.4297C76.1484 19.5234 76.3672 19.5703 76.6172 19.5703C76.9818 19.5703 77.2995 19.4974 77.5703 19.3516C77.8411 19.2005 78.0521 19.0182 78.2031 18.8047C78.3542 18.5911 78.4349 18.388 78.4453 18.1953L79.0391 19.0859C78.9661 19.2995 78.8568 19.526 78.7109 19.7656C78.5651 20.0052 78.3776 20.2292 78.1484 20.4375C77.9193 20.6458 77.6432 20.8177 77.3203 20.9531C76.9974 21.0885 76.6224 21.1562 76.1953 21.1562C75.6484 21.1562 75.1589 21.0469 74.7266 20.8281C74.2943 20.6094 73.9531 20.3099 73.7031 19.9297C73.4531 19.5495 73.3281 19.1172 73.3281 18.6328C73.3281 18.1849 73.4115 17.7891 73.5781 17.4453C73.7448 17.1016 73.9922 16.8125 74.3203 16.5781C74.6484 16.3385 75.0547 16.1589 75.5391 16.0391C76.0286 15.9141 76.5885 15.8516 77.2188 15.8516H78.6094ZM87.3281 19.2031V9H89.4062V21H87.5312L87.3281 19.2031ZM81.8984 16.875V16.7109C81.8984 16.0651 81.9714 15.4792 82.1172 14.9531C82.2682 14.4219 82.487 13.9661 82.7734 13.5859C83.0599 13.2057 83.4062 12.9115 83.8125 12.7031C84.224 12.4948 84.6901 12.3906 85.2109 12.3906C85.7161 12.3906 86.1562 12.4922 86.5312 12.6953C86.9115 12.8984 87.2344 13.1875 87.5 13.5625C87.7708 13.9375 87.987 14.3828 88.1484 14.8984C88.3099 15.4089 88.4271 15.9714 88.5 16.5859V17.0312C88.4271 17.6302 88.3099 18.1797 88.1484 18.6797C87.987 19.1797 87.7708 19.6172 87.5 19.9922C87.2344 20.362 86.9115 20.6484 86.5312 20.8516C86.151 21.0547 85.7057 21.1562 85.1953 21.1562C84.6797 21.1562 84.2161 21.0495 83.8047 20.8359C83.3984 20.6224 83.0521 20.3229 82.7656 19.9375C82.4844 19.5521 82.2682 19.099 82.1172 18.5781C81.9714 18.0573 81.8984 17.4896 81.8984 16.875ZM83.9688 16.7109V16.875C83.9688 17.2396 84 17.5807 84.0625 17.8984C84.125 18.2161 84.2266 18.4974 84.3672 18.7422C84.5078 18.9818 84.6875 19.1693 84.9062 19.3047C85.1302 19.4401 85.401 19.5078 85.7188 19.5078C86.125 19.5078 86.4583 19.4193 86.7188 19.2422C86.9844 19.0599 87.1901 18.8125 87.3359 18.5C87.4818 18.1823 87.5755 17.8255 87.6172 17.4297V16.2031C87.5964 15.8906 87.5417 15.6016 87.4531 15.3359C87.3698 15.0703 87.25 14.8411 87.0938 14.6484C86.9427 14.4557 86.7552 14.3047 86.5312 14.1953C86.3073 14.0859 86.0417 14.0312 85.7344 14.0312C85.4167 14.0312 85.1458 14.1016 84.9219 14.2422C84.6979 14.3776 84.5156 14.5677 84.375 14.8125C84.2344 15.0573 84.1302 15.3411 84.0625 15.6641C84 15.987 83.9688 16.3359 83.9688 16.7109ZM100.328 19.2031V9H102.406V21H100.531L100.328 19.2031ZM94.8984 16.875V16.7109C94.8984 16.0651 94.9714 15.4792 95.1172 14.9531C95.2682 14.4219 95.487 13.9661 95.7734 13.5859C96.0599 13.2057 96.4062 12.9115 96.8125 12.7031C97.224 12.4948 97.6901 12.3906 98.2109 12.3906C98.7161 12.3906 99.1562 12.4922 99.5312 12.6953C99.9115 12.8984 100.234 13.1875 100.5 13.5625C100.771 13.9375 100.987 14.3828 101.148 14.8984C101.31 15.4089 101.427 15.9714 101.5 16.5859V17.0312C101.427 17.6302 101.31 18.1797 101.148 18.6797C100.987 19.1797 100.771 19.6172 100.5 19.9922C100.234 20.362 99.9115 20.6484 99.5312 20.8516C99.151 21.0547 98.7057 21.1562 98.1953 21.1562C97.6797 21.1562 97.2161 21.0495 96.8047 20.8359C96.3984 20.6224 96.0521 20.3229 95.7656 19.9375C95.4844 19.5521 95.2682 19.099 95.1172 18.5781C94.9714 18.0573 94.8984 17.4896 94.8984 16.875ZM96.9688 16.7109V16.875C96.9688 17.2396 97 17.5807 97.0625 17.8984C97.125 18.2161 97.2266 18.4974 97.3672 18.7422C97.5078 18.9818 97.6875 19.1693 97.9062 19.3047C98.1302 19.4401 98.401 19.5078 98.7188 19.5078C99.125 19.5078 99.4583 19.4193 99.7188 19.2422C99.9844 19.0599 100.19 18.8125 100.336 18.5C100.482 18.1823 100.576 17.8255 100.617 17.4297V16.2031C100.596 15.8906 100.542 15.6016 100.453 15.3359C100.37 15.0703 100.25 14.8411 100.094 14.6484C99.9427 14.4557 99.7552 14.3047 99.5312 14.1953C99.3073 14.0859 99.0417 14.0312 98.7344 14.0312C98.4167 14.0312 98.1458 14.1016 97.9219 14.2422C97.6979 14.3776 97.5156 14.5677 97.375 14.8125C97.2344 15.0573 97.1302 15.3411 97.0625 15.6641C97 15.987 96.9688 16.3359 96.9688 16.7109ZM108.07 21.1562C107.43 21.1562 106.854 21.0521 106.344 20.8438C105.833 20.6354 105.398 20.3464 105.039 19.9766C104.685 19.6016 104.411 19.1667 104.219 18.6719C104.031 18.1719 103.938 17.6354 103.938 17.0625V16.75C103.938 16.099 104.031 15.5078 104.219 14.9766C104.406 14.4401 104.672 13.9792 105.016 13.5938C105.359 13.2083 105.771 12.9115 106.25 12.7031C106.729 12.4948 107.258 12.3906 107.836 12.3906C108.435 12.3906 108.964 12.4922 109.422 12.6953C109.88 12.8932 110.263 13.1745 110.57 13.5391C110.878 13.9036 111.109 14.3411 111.266 14.8516C111.422 15.3568 111.5 15.9167 111.5 16.5312V17.3984H104.875V15.9766H109.469V15.8203C109.458 15.4922 109.396 15.1927 109.281 14.9219C109.167 14.6458 108.99 14.4271 108.75 14.2656C108.51 14.099 108.201 14.0156 107.82 14.0156C107.513 14.0156 107.245 14.0833 107.016 14.2188C106.792 14.349 106.604 14.5365 106.453 14.7812C106.307 15.0208 106.198 15.3073 106.125 15.6406C106.052 15.974 106.016 16.3438 106.016 16.75V17.0625C106.016 17.4167 106.062 17.7448 106.156 18.0469C106.255 18.349 106.398 18.612 106.586 18.8359C106.779 19.0547 107.008 19.2266 107.273 19.3516C107.544 19.4714 107.852 19.5312 108.195 19.5312C108.628 19.5312 109.018 19.4479 109.367 19.2812C109.721 19.1094 110.029 18.8568 110.289 18.5234L111.328 19.6016C111.151 19.862 110.911 20.112 110.609 20.3516C110.312 20.5911 109.953 20.7865 109.531 20.9375C109.109 21.0833 108.622 21.1562 108.07 21.1562ZM119.57 21H117.492V11.7656C117.492 11.1302 117.615 10.5964 117.859 10.1641C118.104 9.72656 118.453 9.39583 118.906 9.17188C119.359 8.94792 119.893 8.83594 120.508 8.83594C120.711 8.83594 120.904 8.84896 121.086 8.875C121.273 8.90104 121.458 8.9375 121.641 8.98438L121.602 10.5547C121.503 10.5286 121.393 10.5104 121.273 10.5C121.159 10.4896 121.031 10.4844 120.891 10.4844C120.609 10.4844 120.37 10.5339 120.172 10.6328C119.974 10.7318 119.823 10.8776 119.719 11.0703C119.62 11.2578 119.57 11.4896 119.57 11.7656V21ZM121.281 12.5469V14.0312H116.219V12.5469H121.281ZM122.188 16.8594V16.6953C122.188 16.0755 122.276 15.5052 122.453 14.9844C122.63 14.4583 122.888 14.0026 123.227 13.6172C123.565 13.2318 123.979 12.9323 124.469 12.7188C124.958 12.5 125.516 12.3906 126.141 12.3906C126.776 12.3906 127.339 12.5 127.828 12.7188C128.323 12.9323 128.74 13.2318 129.078 13.6172C129.417 14.0026 129.674 14.4583 129.852 14.9844C130.029 15.5052 130.117 16.0755 130.117 16.6953V16.8594C130.117 17.474 130.029 18.0443 129.852 18.5703C129.674 19.0911 129.417 19.5469 129.078 19.9375C128.74 20.3229 128.326 20.6224 127.836 20.8359C127.346 21.0495 126.786 21.1562 126.156 21.1562C125.531 21.1562 124.971 21.0495 124.477 20.8359C123.982 20.6224 123.565 20.3229 123.227 19.9375C122.888 19.5469 122.63 19.0911 122.453 18.5703C122.276 18.0443 122.188 17.474 122.188 16.8594ZM124.25 16.6953V16.8594C124.25 17.2292 124.286 17.5755 124.359 17.8984C124.432 18.2214 124.544 18.5052 124.695 18.75C124.846 18.9948 125.042 19.1875 125.281 19.3281C125.526 19.4635 125.818 19.5312 126.156 19.5312C126.49 19.5312 126.776 19.4635 127.016 19.3281C127.255 19.1875 127.451 18.9948 127.602 18.75C127.758 18.5052 127.872 18.2214 127.945 17.8984C128.018 17.5755 128.055 17.2292 128.055 16.8594V16.6953C128.055 16.3307 128.018 15.9896 127.945 15.6719C127.872 15.349 127.758 15.0651 127.602 14.8203C127.451 14.5703 127.253 14.375 127.008 14.2344C126.768 14.0885 126.479 14.0156 126.141 14.0156C125.807 14.0156 125.521 14.0885 125.281 14.2344C125.042 14.375 124.846 14.5703 124.695 14.8203C124.544 15.0651 124.432 15.349 124.359 15.6719C124.286 15.9896 124.25 16.3307 124.25 16.6953ZM135.617 12.5469V14.0312H130.773V12.5469H135.617ZM132.07 10.4688H134.141V18.5625C134.141 18.8125 134.174 19.0052 134.242 19.1406C134.31 19.276 134.411 19.3672 134.547 19.4141C134.682 19.4609 134.844 19.4844 135.031 19.4844C135.167 19.4844 135.292 19.4766 135.406 19.4609C135.521 19.4453 135.617 19.4297 135.695 19.4141L135.703 20.9609C135.531 21.0182 135.336 21.0651 135.117 21.1016C134.904 21.138 134.661 21.1562 134.391 21.1562C133.927 21.1562 133.521 21.0781 133.172 20.9219C132.823 20.7604 132.552 20.5026 132.359 20.1484C132.167 19.7891 132.07 19.3151 132.07 18.7266V10.4688ZM136.422 16.8594V16.6953C136.422 16.0755 136.51 15.5052 136.688 14.9844C136.865 14.4583 137.122 14.0026 137.461 13.6172C137.799 13.2318 138.214 12.9323 138.703 12.7188C139.193 12.5 139.75 12.3906 140.375 12.3906C141.01 12.3906 141.573 12.5 142.062 12.7188C142.557 12.9323 142.974 13.2318 143.312 13.6172C143.651 14.0026 143.909 14.4583 144.086 14.9844C144.263 15.5052 144.352 16.0755 144.352 16.6953V16.8594C144.352 17.474 144.263 18.0443 144.086 18.5703C143.909 19.0911 143.651 19.5469 143.312 19.9375C142.974 20.3229 142.56 20.6224 142.07 20.8359C141.581 21.0495 141.021 21.1562 140.391 21.1562C139.766 21.1562 139.206 21.0495 138.711 20.8359C138.216 20.6224 137.799 20.3229 137.461 19.9375C137.122 19.5469 136.865 19.0911 136.688 18.5703C136.51 18.0443 136.422 17.474 136.422 16.8594ZM138.484 16.6953V16.8594C138.484 17.2292 138.521 17.5755 138.594 17.8984C138.667 18.2214 138.779 18.5052 138.93 18.75C139.081 18.9948 139.276 19.1875 139.516 19.3281C139.76 19.4635 140.052 19.5312 140.391 19.5312C140.724 19.5312 141.01 19.4635 141.25 19.3281C141.49 19.1875 141.685 18.9948 141.836 18.75C141.992 18.5052 142.107 18.2214 142.18 17.8984C142.253 17.5755 142.289 17.2292 142.289 16.8594V16.6953C142.289 16.3307 142.253 15.9896 142.18 15.6719C142.107 15.349 141.992 15.0651 141.836 14.8203C141.685 14.5703 141.487 14.375 141.242 14.2344C141.003 14.0885 140.714 14.0156 140.375 14.0156C140.042 14.0156 139.755 14.0885 139.516 14.2344C139.276 14.375 139.081 14.5703 138.93 14.8203C138.779 15.0651 138.667 15.349 138.594 15.6719C138.521 15.9896 138.484 16.3307 138.484 16.6953Z" fill="black"/>
<path d="M1 9.75V1.75C1 1.33579 1.33579 1 1.75 1H9.47256C9.65159 1 9.82471 1.06405 9.96065 1.18056L13.9144 4.56944C14.0503 4.68595 14.2234 4.75 14.4025 4.75H25.25C25.6642 4.75 26 5.08579 26 5.5V9.75M1 9.75V20.25C1 20.6642 1.33579 21 1.75 21H25.25C25.6642 21 26 20.6642 26 20.25V9.75M1 9.75H26" stroke="black" stroke-width="2" stroke-linecap="round" stroke-linejoin="round"/>
</svg>
